<svg width="60" height="25" viewBox="0 0 60 25" fill="none" xmlns="http://www.w3.org/2000/svg">
  <rect width="60" height="25" rx="4" fill="#635BFF"/>
  <path d="M13.5 8.5c0-.825.675-1.5 1.5-1.5.825 0 1.5.675 1.5 1.5 0 .675-.45 1.275-1.125 1.425v5.325c.675.15 1.125.75 1.125 1.425 0 .825-.675 1.5-1.5 1.5-.825 0-1.5-.675-1.5-1.5 0-.675.45-1.275 1.125-1.425V9.925c-.675-.15-1.125-.75-1.125-1.425z" fill="white"/>
  <path d="M19.5 10.5c-.3 0-.6.075-.825.225V9.75h-1.5v7.5h1.5v-3.75c0-.675.3-.975.75-.975s.75.3.75.975v3.75h1.5v-4.125c0-1.275-.675-2.025-1.875-2.025-.15 0-.225 0-.3 0z" fill="white"/>
  <path d="M25.125 10.5c-.825 0-1.425.375-1.725.9v-.675h-1.5v7.5h1.5v-3.75c0-.675.3-.975.75-.975s.75.3.75.975v3.75h1.5v-4.125c0-1.275-.675-2.025-1.875-2.025-.15 0-.3 0-.4 0z" fill="white"/>
  <path d="M30.75 8.25v9h-1.5v-9h1.5z" fill="white"/>
  <path d="M34.5 10.5c-1.05 0-1.875.825-1.875 1.875v2.25c0 1.05.825 1.875 1.875 1.875s1.875-.825 1.875-1.875v-2.25c0-1.05-.825-1.875-1.875-1.875zm.375 4.125c0 .225-.15.375-.375.375s-.375-.15-.375-.375v-2.25c0-.225.15-.375.375-.375s.375.15.375.375v2.25z" fill="white"/>
  <path d="M40.5 10.5c-.825 0-1.5.675-1.5 1.5v5.25h1.5v-5.25c0-.225.15-.375.375-.375h.375v-1.125H40.5z" fill="white"/>
  <path d="M45 10.5c-1.05 0-1.875.825-1.875 1.875v.75h1.5v-.75c0-.225.15-.375.375-.375s.375.15.375.375c0 .15-.075.3-.225.375l-.975.75c-.45.375-.675.825-.675 1.35v1.125h3v-1.125h-1.125c.075-.075.15-.15.225-.225l.975-.75c.45-.375.675-.825.675-1.35 0-1.05-.825-1.875-1.875-1.875z" fill="white"/>
</svg>